<?xml version="1.0" encoding="UTF-8"?>
<svg id="Layer_2" data-name="Layer 2" xmlns="http://www.w3.org/2000/svg" viewBox="0 0 941.46 931.13">
  <defs>
    <style>
      .cls-1 {
        fill: #fff;
        stroke-width: 0px;
      }
    </style>
  </defs>
  <g id="Layer_1-2" data-name="Layer 1">
    <g>
      <path class="cls-1" d="M312.06,441.13v-174.93h-170.09v174.93H34.8V0h107.17v173.55h170.09V0h107.17v441.13h-107.17Z"/>
      <path class="cls-1" d="M498.04,441.13V0h107.17v441.13h-107.17Z"/>
      <path class="cls-1" d="M134.14,931.13c-49.78,0-97.49-14.52-123.77-30.42L0,800.45c35.95,24.89,82.97,42.18,127.22,42.18,38.03,0,62.23-17.29,62.23-44.25s-15.9-40.1-56.7-51.17c-86.43-23.51-126.53-71.22-126.53-138.29,0-73.29,54.62-132.06,150.04-132.06,50.47,0,92.65,14.52,110.63,24.89l-19.36,86.43c-17.98-10.37-53.24-22.82-83.66-22.82-37.34,0-54.62,16.59-54.62,38.03s18.67,33.88,52.55,43.56c84.35,23.51,134.83,67.07,134.83,145.2,0,85.05-55.32,138.98-162.49,138.98Z"/>
      <path class="cls-1" d="M531.01,571.59v353.32h-107.17v-353.32h-126.53v-87.81h360.23v87.81h-126.53Z"/>
    </g>
    <g>
      <path class="cls-1" d="M783.12,703.85c-24.29,0-74.68,77.14-74.68,112.95s50.38,114.33,74.68,114.33,74.68-77.14,74.68-114.33-50.38-112.95-74.68-112.95Z"/>
      <path class="cls-1" d="M865,479.32c-22.5,38.57-31.5,71.63-31.5,108.83,0,14.6.52,31.57,1.95,46.73h-118.09l.08-90.81c0-74.38,18.88-136.38,52.18-190.09,23.39-37.2,35.08-63.39,35.08-103.32,0-28.94-17.99-62-49.47-62s-61.18,17.92-91.77,45.47l-26.99-170.8c33.28-31.69,77.37-52.34,128.65-52.34,106.16,0,176.34,93.67,176.34,232.78,0,82.67-23.39,147.4-76.46,235.56Z"/>
    </g>
  </g>
</svg>