<?xml version="1.0" encoding="UTF-8"?>
<svg id="Layer_2" data-name="Layer 2" xmlns="http://www.w3.org/2000/svg" viewBox="0 0 888.53 357.38">
  <defs>
    <style>
      .cls-1 {
        fill: #fff;
        stroke-width: 0px;
      }
    </style>
  </defs>
  <g id="Layer_1-2" data-name="Layer 1">
    <g>
      <g>
        <path class="cls-1" d="M144.88,242.32v-91.41H56v91.41H0V11.81h56v90.68h88.88V11.81h56v230.51h-56Z"/>
        <path class="cls-1" d="M242.06,242.32V11.81h56v230.51h-56Z"/>
        <path class="cls-1" d="M404.28,245.57c-26.01,0-50.94-7.59-64.67-15.9l-5.42-52.39c18.79,13.01,43.36,22.04,66.48,22.04,19.87,0,32.52-9.03,32.52-23.12s-8.31-20.96-29.63-26.74c-45.16-12.28-66.12-37.21-66.12-72.26,0-38.3,28.54-69.01,78.4-69.01,26.37,0,48.41,7.59,57.81,13.01l-10.12,45.16c-9.39-5.42-27.82-11.92-43.72-11.92-19.51,0-28.54,8.67-28.54,19.87s9.75,17.7,27.46,22.76c44.08,12.28,70.45,35.05,70.45,75.87,0,44.44-28.9,72.62-84.9,72.62Z"/>
        <path class="cls-1" d="M611.66,57.69v184.62h-56V57.69h-66.12V11.81h188.23v45.88h-66.12Z"/>
      </g>
      <g>
        <path class="cls-1" d="M33.44,317.9H15.76v32.49c0,3.8-3.27,6.5-7.87,6.5S.02,354.2.02,350.39v-75.29c0-3.8,3.27-6.5,7.87-6.5s7.87,2.7,7.87,6.5v30.66h17.68v-30.66c0-3.8,3.27-6.5,7.87-6.5s7.87,2.7,7.87,6.5v75.29c0,3.8-3.12,6.5-7.87,6.5s-7.87-2.7-7.87-6.5v-32.49Z"/>
        <path class="cls-1" d="M76.08,309.32c0,3.43-3.12,5.64-7.13,5.64-4.61,0-7.28-2.21-7.28-5.64v-1.72c0-9.44,6.83-15.45,20.5-15.45s20.65,5.52,20.65,16.68v41.81c0,3.56-2.97,6.01-7.58,6.01-4.01,0-6.69-2.21-7.13-4.9-1.93,3.19-5.79,5.39-11.44,5.39-11.14,0-16.34-8.46-16.34-19.37s5.65-18.64,17.83-18.64c4.01,0,7.28.86,9.51,2.21v-13.24c0-3.07-1.63-5.15-5.79-5.15s-5.79,1.96-5.79,5.52v.86ZM87.66,330.41c-1.34-.61-2.82-1.1-5.2-1.1-4.75,0-7.13,2.21-7.13,8.46s2.08,9.07,7.13,9.07c2.23,0,4.16-.61,5.2-1.35v-15.08Z"/>
        <path class="cls-1" d="M139.81,297.54c.59-3.19,3.12-5.15,7.28-5.15s7.43,1.96,7.43,5.52c0,.61-.15,1.23-.3,1.84l-14.56,51.5c-.89,3.19-3.71,5.64-8.02,5.64s-7.13-2.45-8.02-5.64l-14.56-51.5c-.15-.61-.3-1.23-.3-1.84,0-3.56,3.42-5.52,7.43-5.52s6.69,1.96,7.28,5.15l7.43,36.05c.3,1.59.74,5.15.74,8.09,0-2.94.45-6.5.74-8.09l7.43-36.05Z"/>
        <path class="cls-1" d="M202.64,323.17c0,3.07-2.53,5.03-5.94,5.03h-20.8v13.37c0,3.43,2.23,5.27,5.94,5.27,3.27,0,6.09-1.35,6.09-5.27v-.74c0-4.17,2.97-6.01,7.13-6.01,4.9,0,7.28,2.58,7.28,6.13v.98c-.3,8.95-8.02,15.2-20.5,15.2-13.52,0-21.1-6.38-21.1-17.17v-29.43c0-11.89,7.87-18.39,21.1-18.39s20.8,6.74,20.8,17.66v13.37ZM187.79,308.09c0-3.8-2.23-5.52-5.94-5.52s-5.94,1.72-5.94,5.27v10.42h11.88v-10.18Z"/>
        <path class="cls-1" d="M237.7,275.1c0-3.8,3.12-6.5,7.87-6.5s7.87,2.7,7.87,6.5v75.29c0,3.8-3.27,6.5-7.87,6.5s-7.87-2.7-7.87-6.5v-75.29Z"/>
        <path class="cls-1" d="M289.1,333.96c0-4.17,2.82-6.25,7.28-6.25,4.75,0,7.58,2.45,7.58,6.25v2.94c0,5.4,2.08,9.56,8.76,9.56,6.09,0,8.62-3.68,8.62-9.69,0-9.2-6.09-13.98-13.07-19.25-10.84-8.09-19.91-16.31-19.91-28.57,0-13.86,9.06-20.85,23.47-20.85s22.88,7.36,22.88,19.25v4.29c0,3.68-2.97,6.01-7.43,6.01s-7.43-2.33-7.43-6.01v-3.92c0-5.27-2.67-8.46-8.02-8.46-5.79,0-8.02,3.43-8.02,8.71,0,7.97,5.35,12.75,12.18,18.03,8.47,6.62,20.8,15.94,20.8,29.55,0,12.75-9.51,21.83-24.36,21.83s-23.32-8.58-23.32-19.99v-3.43Z"/>
        <path class="cls-1" d="M386.7,323.17c0,3.07-2.53,5.03-5.94,5.03h-20.8v13.37c0,3.43,2.23,5.27,5.94,5.27,3.27,0,6.09-1.35,6.09-5.27v-.74c0-4.17,2.97-6.01,7.13-6.01,4.9,0,7.28,2.58,7.28,6.13v.98c-.3,8.95-8.02,15.2-20.5,15.2-13.52,0-21.1-6.38-21.1-17.17v-29.43c0-11.89,7.87-18.39,21.1-18.39s20.8,6.74,20.8,17.66v13.37ZM371.84,308.09c0-3.8-2.23-5.52-5.94-5.52s-5.94,1.72-5.94,5.27v10.42h11.88v-10.18Z"/>
        <path class="cls-1" d="M437.5,323.17c0,3.07-2.53,5.03-5.94,5.03h-20.8v13.37c0,3.43,2.23,5.27,5.94,5.27,3.27,0,6.09-1.35,6.09-5.27v-.74c0-4.17,2.97-6.01,7.13-6.01,4.9,0,7.28,2.58,7.28,6.13v.98c-.3,8.95-8.02,15.2-20.5,15.2-13.52,0-21.1-6.38-21.1-17.17v-29.43c0-11.89,7.87-18.39,21.1-18.39s20.8,6.74,20.8,17.66v13.37ZM422.64,308.09c0-3.8-2.23-5.52-5.94-5.52s-5.94,1.72-5.94,5.27v10.42h11.88v-10.18Z"/>
        <path class="cls-1" d="M475.68,309.19c0-3.56-2.08-5.64-6.39-5.64-2.97,0-5.05,1.1-6.09,2.21v44.63c0,3.8-2.97,6.25-7.58,6.25s-7.58-2.45-7.58-6.25v-51.26c0-3.92,2.67-6.01,7.13-6.01s6.98,1.84,7.28,5.52c2.08-4.29,6.54-6.5,12.92-6.5,10.4,0,15.45,6.01,15.45,14.35v43.9c0,3.8-2.97,6.25-7.58,6.25s-7.58-2.45-7.58-6.25v-41.2Z"/>
        <path class="cls-1" d="M549.51,281.36v69.04c0,3.8-3.27,6.5-7.87,6.5s-7.87-2.7-7.87-6.5v-69.04h-11.14c-4.01,0-6.98-2.33-6.98-5.76s2.97-5.76,6.98-5.76h38.03c4.16,0,6.98,2.45,6.98,5.76s-2.82,5.76-6.98,5.76h-11.14Z"/>
        <path class="cls-1" d="M601.5,309.19c0-3.56-2.08-5.64-6.39-5.64-2.97,0-5.05,1.1-6.09,2.21v44.63c0,3.8-2.97,6.25-7.58,6.25s-7.58-2.45-7.58-6.25v-75.29c0-3.8,2.97-6.25,7.58-6.25s7.58,2.45,7.58,6.25v22.68c1.78-3.31,6.39-5.64,12.18-5.64,10.4,0,15.45,6.01,15.45,14.35v43.9c0,3.8-2.97,6.25-7.58,6.25s-7.58-2.45-7.58-6.25v-41.2Z"/>
        <path class="cls-1" d="M636.85,283.93c-5.65,0-8.91-3.31-8.91-7.48s3.27-7.6,8.91-7.6,8.91,3.43,8.91,7.6-3.27,7.48-8.91,7.48ZM644.43,350.39c0,3.8-2.97,6.25-7.58,6.25s-7.58-2.45-7.58-6.25v-51.5c0-3.8,2.97-6.25,7.58-6.25s7.58,2.45,7.58,6.25v51.5Z"/>
        <path class="cls-1" d="M654.97,341.93v-1.72c0-4.17,2.97-6.13,7.13-6.13,4.46,0,7.13,2.21,7.13,5.89v1.1c0,3.68,2.23,6.13,6.39,6.13,4.75,0,6.54-2.82,6.54-6.25,0-5.15-3.42-8.22-9.51-11.53-10.25-5.64-17.68-11.04-17.68-20.97s8.02-16.31,20.2-16.31c13.07,0,19.91,6.25,19.91,15.7v1.47c0,2.94-2.38,5.64-7.13,5.64s-7.13-2.45-7.13-5.64v-1.96c0-3.07-1.63-5.27-5.65-5.27s-5.65,2.08-5.65,5.4c0,5.15,3.27,7.48,9.66,11.16,8.91,5.15,17.53,10.05,17.53,21.09,0,9.44-7.58,17.41-21.39,17.41-11.44,0-20.35-6.25-20.35-15.2Z"/>
      </g>
      <g>
        <path class="cls-1" d="M794.37,269.11c-14.45,0-44.41,29.96-44.41,43.87s29.96,44.41,44.41,44.41,44.41-29.96,44.41-44.41-29.96-43.87-44.41-43.87Z"/>
        <path class="cls-1" d="M843.06,181.9c-13.38,14.98-18.73,27.82-18.73,42.27,0,5.67.31,12.26,1.16,18.15h-70.22l.05-35.27c0-28.89,11.23-52.97,31.03-73.83,13.91-14.45,20.86-24.62,20.86-40.13,0-11.24-10.7-24.08-29.42-24.08s-36.38,6.96-54.57,17.66l-16.05-66.34c19.79-12.31,46.01-20.33,76.5-20.33,63.13,0,104.86,36.38,104.86,90.41,0,32.11-13.91,57.25-45.47,91.49Z"/>
      </g>
    </g>
  </g>
</svg>